# xmcd
#
# Track frame offsets:
# 150
# 17385
# 31692
#
# Disc length: 597 seconds
#
#
# Revision: 0
# Processed by: cddbd v1.5.1PL0 Copyright (c) Steve Scherf et al.
# Submitted via: FreeRIP 2.943 
#
DISCID=10025303
DTITLE=DIVERSOS - HINOS DO BRASIL
DYEAR=2005
DGENRE=Country
TTITLE0=MUSICA 1
TTITLE1=MÚSICA 2
TTITLE2=MÚXICA 3
EXTD=HINOS DO BRASIL
EXTT0=
EXTT1=
EXTT2=
PLAYORDER=
